<svg xmlns="http://www.w3.org/2000/svg" xmlns:xlink="http://www.w3.org/1999/xlink" width="6912" zoomAndPan="magnify" viewBox="0 0 5184 1727.999927" height="2304" preserveAspectRatio="xMidYMid meet" version="1.0"><defs><g/><clipPath id="990c62eba5"><path d="M 1747.988281 200.425781 L 3302 200.425781 L 3302 1543.917969 L 1747.988281 1543.917969 Z M 1747.988281 200.425781 " clip-rule="nonzero"/></clipPath><clipPath id="e8f552ab10"><path d="M 1822.988281 200.425781 L 3226.636719 200.425781 C 3268.058594 200.425781 3301.636719 234.007812 3301.636719 275.425781 L 3301.636719 1468.917969 C 3301.636719 1510.339844 3268.058594 1543.917969 3226.636719 1543.917969 L 1822.988281 1543.917969 C 1781.566406 1543.917969 1747.988281 1510.339844 1747.988281 1468.917969 L 1747.988281 275.425781 C 1747.988281 234.007812 1781.566406 200.425781 1822.988281 200.425781 Z M 1822.988281 200.425781 " clip-rule="nonzero"/></clipPath><clipPath id="c418d7aff7"><path d="M 0.988281 0.425781 L 1554.679688 0.425781 L 1554.679688 1343.917969 L 0.988281 1343.917969 Z M 0.988281 0.425781 " clip-rule="nonzero"/></clipPath><clipPath id="6d79f4a7c2"><path d="M 75.988281 0.425781 L 1479.636719 0.425781 C 1521.058594 0.425781 1554.636719 34.007812 1554.636719 75.425781 L 1554.636719 1268.917969 C 1554.636719 1310.339844 1521.058594 1343.917969 1479.636719 1343.917969 L 75.988281 1343.917969 C 34.566406 1343.917969 0.988281 1310.339844 0.988281 1268.917969 L 0.988281 75.425781 C 0.988281 34.007812 34.566406 0.425781 75.988281 0.425781 Z M 75.988281 0.425781 " clip-rule="nonzero"/></clipPath><clipPath id="e64247407b"><rect x="0" width="1555" y="0" height="1344"/></clipPath><clipPath id="82de4c057f"><path d="M 1691.175781 173.429688 L 3358.394531 173.429688 L 3358.394531 1605.015625 L 1691.175781 1605.015625 Z M 1691.175781 173.429688 " clip-rule="nonzero"/></clipPath><clipPath id="99761621da"><path d="M 2905 48.976562 L 3009 48.976562 L 3009 356 L 2905 356 Z M 2905 48.976562 " clip-rule="nonzero"/></clipPath><clipPath id="46062c1f38"><path d="M 1747.988281 421.253906 L 3301.636719 421.253906 L 3301.636719 697.714844 L 1747.988281 697.714844 Z M 1747.988281 421.253906 " clip-rule="nonzero"/></clipPath><clipPath id="b5d135cb8d"><path d="M 0.988281 0.253906 L 1554.636719 0.253906 L 1554.636719 276.714844 L 0.988281 276.714844 Z M 0.988281 0.253906 " clip-rule="nonzero"/></clipPath><clipPath id="b4ff9b2df6"><rect x="0" width="1555" y="0" height="277"/></clipPath><clipPath id="ee6be80aeb"><path d="M 1965.160156 528.066406 L 2223.710938 528.066406 L 2223.710938 786.617188 L 1965.160156 786.617188 Z M 1965.160156 528.066406 " clip-rule="nonzero"/></clipPath><clipPath id="d6f22bf963"><path d="M 2094.4375 528.066406 C 2023.039062 528.066406 1965.160156 585.945312 1965.160156 657.34375 C 1965.160156 728.742188 2023.039062 786.617188 2094.4375 786.617188 C 2165.835938 786.617188 2223.710938 728.742188 2223.710938 657.34375 C 2223.710938 585.945312 2165.835938 528.066406 2094.4375 528.066406 Z M 2094.4375 528.066406 " clip-rule="nonzero"/></clipPath><clipPath id="023c8a4437"><path d="M 0.160156 0.0664062 L 258.710938 0.0664062 L 258.710938 258.617188 L 0.160156 258.617188 Z M 0.160156 0.0664062 " clip-rule="nonzero"/></clipPath><clipPath id="1e56dbf239"><path d="M 129.4375 0.0664062 C 58.039062 0.0664062 0.160156 57.945312 0.160156 129.34375 C 0.160156 200.742188 58.039062 258.617188 129.4375 258.617188 C 200.835938 258.617188 258.710938 200.742188 258.710938 129.34375 C 258.710938 57.945312 200.835938 0.0664062 129.4375 0.0664062 Z M 129.4375 0.0664062 " clip-rule="nonzero"/></clipPath><clipPath id="eec6435d49"><rect x="0" width="259" y="0" height="259"/></clipPath><clipPath id="8878e267ae"><path d="M 2825.910156 1051.339844 L 3084.460938 1051.339844 L 3084.460938 1309.890625 L 2825.910156 1309.890625 Z M 2825.910156 1051.339844 " clip-rule="nonzero"/></clipPath><clipPath id="49ea12381a"><path d="M 2955.1875 1051.339844 C 2883.789062 1051.339844 2825.910156 1109.214844 2825.910156 1180.613281 C 2825.910156 1252.011719 2883.789062 1309.890625 2955.1875 1309.890625 C 3026.582031 1309.890625 3084.460938 1252.011719 3084.460938 1180.613281 C 3084.460938 1109.214844 3026.582031 1051.339844 2955.1875 1051.339844 Z M 2955.1875 1051.339844 " clip-rule="nonzero"/></clipPath><clipPath id="d42649849d"><path d="M 0.910156 0.339844 L 259.460938 0.339844 L 259.460938 258.890625 L 0.910156 258.890625 Z M 0.910156 0.339844 " clip-rule="nonzero"/></clipPath><clipPath id="3b19cabe42"><path d="M 130.1875 0.339844 C 58.789062 0.339844 0.910156 58.214844 0.910156 129.613281 C 0.910156 201.011719 58.789062 258.890625 130.1875 258.890625 C 201.582031 258.890625 259.460938 201.011719 259.460938 129.613281 C 259.460938 58.214844 201.582031 0.339844 130.1875 0.339844 Z M 130.1875 0.339844 " clip-rule="nonzero"/></clipPath><clipPath id="851ab141f4"><rect x="0" width="260" y="0" height="259"/></clipPath><clipPath id="93af4a69aa"><path d="M 2696.636719 528.066406 L 2955.1875 528.066406 L 2955.1875 786.617188 L 2696.636719 786.617188 Z M 2696.636719 528.066406 " clip-rule="nonzero"/></clipPath><clipPath id="6da6155197"><path d="M 2825.910156 528.066406 C 2754.515625 528.066406 2696.636719 585.945312 2696.636719 657.34375 C 2696.636719 728.742188 2754.515625 786.617188 2825.910156 786.617188 C 2897.308594 786.617188 2955.1875 728.742188 2955.1875 657.34375 C 2955.1875 585.945312 2897.308594 528.066406 2825.910156 528.066406 Z M 2825.910156 528.066406 " clip-rule="nonzero"/></clipPath><clipPath id="40581b1979"><path d="M 0.636719 0.0664062 L 259.1875 0.0664062 L 259.1875 258.617188 L 0.636719 258.617188 Z M 0.636719 0.0664062 " clip-rule="nonzero"/></clipPath><clipPath id="1437edef9b"><path d="M 129.910156 0.0664062 C 58.515625 0.0664062 0.636719 57.945312 0.636719 129.34375 C 0.636719 200.742188 58.515625 258.617188 129.910156 258.617188 C 201.308594 258.617188 259.1875 200.742188 259.1875 129.34375 C 259.1875 57.945312 201.308594 0.0664062 129.910156 0.0664062 Z M 129.910156 0.0664062 " clip-rule="nonzero"/></clipPath><clipPath id="7f7c51d655"><rect x="0" width="260" y="0" height="259"/></clipPath><clipPath id="d44264a2b8"><path d="M 2094.4375 1098.082031 L 2352.988281 1098.082031 L 2352.988281 1356.632812 L 2094.4375 1356.632812 Z M 2094.4375 1098.082031 " clip-rule="nonzero"/></clipPath><clipPath id="644017c8a3"><path d="M 2223.710938 1098.082031 C 2152.316406 1098.082031 2094.4375 1155.960938 2094.4375 1227.355469 C 2094.4375 1298.753906 2152.316406 1356.632812 2223.710938 1356.632812 C 2295.109375 1356.632812 2352.988281 1298.753906 2352.988281 1227.355469 C 2352.988281 1155.960938 2295.109375 1098.082031 2223.710938 1098.082031 Z M 2223.710938 1098.082031 " clip-rule="nonzero"/></clipPath><clipPath id="993f28b812"><path d="M 0.4375 0.0820312 L 258.988281 0.0820312 L 258.988281 258.632812 L 0.4375 258.632812 Z M 0.4375 0.0820312 " clip-rule="nonzero"/></clipPath><clipPath id="f81e907cde"><path d="M 129.710938 0.0820312 C 58.316406 0.0820312 0.4375 57.960938 0.4375 129.355469 C 0.4375 200.753906 58.316406 258.632812 129.710938 258.632812 C 201.109375 258.632812 258.988281 200.753906 258.988281 129.355469 C 258.988281 57.960938 201.109375 0.0820312 129.710938 0.0820312 Z M 129.710938 0.0820312 " clip-rule="nonzero"/></clipPath><clipPath id="243821a608"><rect x="0" width="259" y="0" height="259"/></clipPath><clipPath id="20f92eed7f"><path d="M 2387.414062 883.890625 L 2645.964844 883.890625 L 2645.964844 1142.441406 L 2387.414062 1142.441406 Z M 2387.414062 883.890625 " clip-rule="nonzero"/></clipPath><clipPath id="fd4b39b7db"><path d="M 2516.6875 883.890625 C 2445.292969 883.890625 2387.414062 941.769531 2387.414062 1013.164062 C 2387.414062 1084.5625 2445.292969 1142.441406 2516.6875 1142.441406 C 2588.085938 1142.441406 2645.964844 1084.5625 2645.964844 1013.164062 C 2645.964844 941.769531 2588.085938 883.890625 2516.6875 883.890625 Z M 2516.6875 883.890625 " clip-rule="nonzero"/></clipPath><clipPath id="729d638a07"><path d="M 0.414062 0.890625 L 258.964844 0.890625 L 258.964844 259.441406 L 0.414062 259.441406 Z M 0.414062 0.890625 " clip-rule="nonzero"/></clipPath><clipPath id="cc7fd31929"><path d="M 129.6875 0.890625 C 58.292969 0.890625 0.414062 58.769531 0.414062 130.164062 C 0.414062 201.5625 58.292969 259.441406 129.6875 259.441406 C 201.085938 259.441406 258.964844 201.5625 258.964844 130.164062 C 258.964844 58.769531 201.085938 0.890625 129.6875 0.890625 Z M 129.6875 0.890625 " clip-rule="nonzero"/></clipPath><clipPath id="e53b963f41"><rect x="0" width="259" y="0" height="260"/></clipPath><clipPath id="de16d83c8a"><path d="M 2387.414062 883.890625 L 2645.953125 883.890625 L 2645.953125 1142.429688 L 2387.414062 1142.429688 Z M 2387.414062 883.890625 " clip-rule="nonzero"/></clipPath><clipPath id="76ed30d974"><path d="M 2516.683594 883.890625 C 2445.289062 883.890625 2387.414062 941.765625 2387.414062 1013.160156 C 2387.414062 1084.554688 2445.289062 1142.429688 2516.683594 1142.429688 C 2588.078125 1142.429688 2645.953125 1084.554688 2645.953125 1013.160156 C 2645.953125 941.765625 2588.078125 883.890625 2516.683594 883.890625 Z M 2516.683594 883.890625 " clip-rule="nonzero"/></clipPath><clipPath id="b7f559d426"><rect x="0" width="1782" y="0" height="1620"/></clipPath><clipPath id="22318167d1"><rect x="0" width="977" y="0" height="1439"/></clipPath><clipPath id="2f514654ba"><rect x="0" width="417" y="0" height="1237"/></clipPath></defs><g clip-path="url(#990c62eba5)"><g clip-path="url(#e8f552ab10)"><g transform="matrix(1, 0, 0, 1, 1747, 200)"><g clip-path="url(#e64247407b)"><g clip-path="url(#c418d7aff7)"><g clip-path="url(#6d79f4a7c2)"><path fill="#ffffff" d="M 0.988281 0.425781 L 1554.398438 0.425781 L 1554.398438 1343.917969 L 0.988281 1343.917969 Z M 0.988281 0.425781 " fill-opacity="1" fill-rule="nonzero"/></g></g></g></g></g></g><path fill="#727273" d="M 2179.332031 230.488281 L 2860.277344 230.488281 C 2866.5625 230.488281 2871.667969 225.394531 2871.667969 219.105469 L 2871.667969 184.945312 C 2871.667969 178.65625 2866.5625 173.554688 2860.277344 173.554688 L 2179.332031 173.554688 C 2173.042969 173.554688 2167.949219 178.65625 2167.949219 184.945312 L 2167.949219 219.105469 C 2167.949219 225.394531 2173.042969 230.488281 2179.332031 230.488281 " fill-opacity="1" fill-rule="nonzero"/><g clip-path="url(#82de4c057f)"><path fill="#727273" d="M 3181.175781 1548.078125 L 1868.472656 1548.078125 C 1801.996094 1548.078125 1748.109375 1494.195312 1748.109375 1427.71875 L 1748.109375 626.523438 L 3301.523438 626.523438 L 3301.523438 1427.71875 C 3301.523438 1494.195312 3247.640625 1548.078125 3181.175781 1548.078125 Z M 3181.175781 173.546875 L 3053.859375 173.546875 C 3047.570312 173.546875 3042.472656 178.648438 3042.472656 184.941406 L 3042.472656 219.09375 C 3042.472656 225.386719 3047.570312 230.488281 3053.859375 230.488281 L 3181.175781 230.488281 C 3247.558594 230.488281 3301.523438 284.457031 3301.523438 350.960938 L 3301.523438 569.589844 L 1748.109375 569.589844 L 1748.109375 350.960938 C 1748.109375 284.457031 1802.085938 230.488281 1868.472656 230.488281 L 1985.757812 230.488281 C 1992.046875 230.488281 1997.144531 225.386719 1997.144531 219.09375 L 1997.144531 184.941406 C 1997.144531 178.648438 1992.046875 173.546875 1985.757812 173.546875 L 1868.472656 173.546875 C 1770.769531 173.546875 1691.175781 253.144531 1691.175781 350.960938 L 1691.175781 1427.71875 C 1691.175781 1525.230469 1770.957031 1605.015625 1868.472656 1605.015625 L 3181.175781 1605.015625 C 3278.6875 1605.015625 3358.46875 1525.230469 3358.46875 1427.71875 L 3358.46875 350.960938 C 3358.46875 253.144531 3278.871094 173.546875 3181.175781 173.546875 " fill-opacity="1" fill-rule="nonzero"/></g><path fill="#727273" d="M 2082.546875 369.074219 C 2110.789062 369.074219 2133.785156 346.179688 2133.785156 317.828125 L 2133.785156 114.34375 C 2133.785156 85.992188 2110.789062 63.101562 2082.546875 63.101562 C 2054.191406 63.101562 2031.304688 85.992188 2031.304688 114.34375 L 2031.304688 317.828125 C 2031.304688 346.179688 2054.191406 369.074219 2082.546875 369.074219 " fill-opacity="1" fill-rule="nonzero"/><g clip-path="url(#99761621da)"><path fill="#727273" d="M 2957.066406 355.058594 C 2985.3125 355.058594 3008.308594 332.050781 3008.308594 303.8125 L 3008.308594 100.214844 C 3008.308594 71.976562 2985.3125 48.980469 2957.066406 48.980469 C 2928.714844 48.980469 2905.832031 71.976562 2905.832031 100.214844 L 2905.832031 303.8125 C 2905.832031 332.050781 2928.714844 355.058594 2957.066406 355.058594 " fill-opacity="1" fill-rule="nonzero"/></g><g clip-path="url(#46062c1f38)"><g transform="matrix(1, 0, 0, 1, 1747, 421)"><g clip-path="url(#b4ff9b2df6)"><g clip-path="url(#b5d135cb8d)"><path fill="#fffefd" d="M 0.988281 0.253906 L 1554.988281 0.253906 L 1554.988281 276.714844 L 0.988281 276.714844 Z M 0.988281 0.253906 " fill-opacity="1" fill-rule="nonzero"/></g></g></g></g><g clip-path="url(#ee6be80aeb)"><g clip-path="url(#d6f22bf963)"><g transform="matrix(1, 0, 0, 1, 1965, 528)"><g clip-path="url(#eec6435d49)"><g clip-path="url(#023c8a4437)"><g clip-path="url(#1e56dbf239)"><path fill="#ffa52f" d="M 0.160156 0.0664062 L 258.710938 0.0664062 L 258.710938 258.617188 L 0.160156 258.617188 Z M 0.160156 0.0664062 " fill-opacity="1" fill-rule="nonzero"/></g></g></g></g></g></g><g clip-path="url(#8878e267ae)"><g clip-path="url(#49ea12381a)"><g transform="matrix(1, 0, 0, 1, 2825, 1051)"><g clip-path="url(#851ab141f4)"><g clip-path="url(#d42649849d)"><g clip-path="url(#3b19cabe42)"><path fill="#ffa52f" d="M 0.910156 0.339844 L 259.460938 0.339844 L 259.460938 258.890625 L 0.910156 258.890625 Z M 0.910156 0.339844 " fill-opacity="1" fill-rule="nonzero"/></g></g></g></g></g></g><g clip-path="url(#93af4a69aa)"><g clip-path="url(#6da6155197)"><g transform="matrix(1, 0, 0, 1, 2696, 528)"><g clip-path="url(#7f7c51d655)"><g clip-path="url(#40581b1979)"><g clip-path="url(#1437edef9b)"><path fill="#ffa52f" d="M 0.636719 0.0664062 L 259.1875 0.0664062 L 259.1875 258.617188 L 0.636719 258.617188 Z M 0.636719 0.0664062 " fill-opacity="1" fill-rule="nonzero"/></g></g></g></g></g></g><g clip-path="url(#d44264a2b8)"><g clip-path="url(#644017c8a3)"><g transform="matrix(1, 0, 0, 1, 2094, 1098)"><g clip-path="url(#243821a608)"><g clip-path="url(#993f28b812)"><g clip-path="url(#f81e907cde)"><path fill="#ffa52f" d="M 0.4375 0.0820312 L 258.988281 0.0820312 L 258.988281 258.632812 L 0.4375 258.632812 Z M 0.4375 0.0820312 " fill-opacity="1" fill-rule="nonzero"/></g></g></g></g></g></g><path stroke-linecap="butt" transform="matrix(0.165914, 0.731418, -0.731418, 0.165914, 2215.42118, 745.446681)" fill="none" stroke-linejoin="miter" d="M 7.834407 62.878611 C 162.204382 13.043502 316.571116 13.041291 470.938536 62.878209 " stroke="#727273" stroke-width="51" stroke-opacity="1" stroke-miterlimit="4"/><path stroke-linecap="butt" transform="matrix(0.179908, 0.728102, -0.728102, 0.179908, 2806.153458, 770.460991)" fill="none" stroke-linejoin="miter" d="M 9.848844 23.519434 C 149.444778 81.97229 289.042241 81.968779 428.638737 23.519014 " stroke="#727273" stroke-width="51" stroke-opacity="1" stroke-miterlimit="4"/><path stroke-linecap="butt" transform="matrix(0.747241, -0.0642763, 0.0642763, 0.747241, 2236.440402, 955.734112)" fill="none" stroke-linejoin="miter" d="M 14.763502 20.790016 C 257.169451 192.916652 499.577059 192.915342 741.98069 20.790829 " stroke="#727273" stroke-width="51" stroke-opacity="1" stroke-miterlimit="4"/><g clip-path="url(#20f92eed7f)"><g clip-path="url(#fd4b39b7db)"><g transform="matrix(1, 0, 0, 1, 2387, 883)"><g clip-path="url(#e53b963f41)"><g clip-path="url(#729d638a07)"><g clip-path="url(#cc7fd31929)"><path fill="#ffffff" d="M 0.414062 0.890625 L 258.964844 0.890625 L 258.964844 259.441406 L 0.414062 259.441406 Z M 0.414062 0.890625 " fill-opacity="1" fill-rule="nonzero"/></g></g></g></g></g></g><g clip-path="url(#de16d83c8a)"><g clip-path="url(#76ed30d974)"><path stroke-linecap="butt" transform="matrix(0.75, 0, 0, 0.75, 2387.413493, 883.890694)" fill="none" stroke-linejoin="miter" d="M 172.360149 -0.0000915018 C 77.167432 -0.0000915018 0.000759047 77.166582 0.000759047 172.359298 C 0.000759047 267.552014 77.167432 344.718688 172.360149 344.718688 C 267.552865 344.718688 344.719538 267.552014 344.719538 172.359298 C 344.719538 77.166582 267.552865 -0.0000915018 172.360149 -0.0000915018 Z M 172.360149 -0.0000915018 " stroke="#ff9e30" stroke-width="60" stroke-opacity="1" stroke-miterlimit="4"/></g></g><g transform="matrix(1, 0, 0, 1, 3402, 108)"><g clip-path="url(#b7f559d426)"><g fill="#ffffff" fill-opacity="1"><g transform="translate(0.717246, 1303.765778)"><g><path d="M 463.242188 39.332031 C 335.59375 39.332031 240.074219 8.179688 176.6875 -54.125 C 113.167969 -116.554688 81.410156 -207.699219 81.410156 -327.554688 L 81.410156 -900.660156 L 304.125 -900.660156 L 304.125 -328.75 C 304.125 -272.191406 316.972656 -230.5625 342.667969 -203.867188 C 368.082031 -177.460938 408.273438 -164.257812 463.242188 -164.257812 C 517.660156 -164.257812 557.734375 -177.492188 583.457031 -203.960938 C 609.390625 -230.644531 622.355469 -272.238281 622.355469 -328.75 L 622.355469 -900.660156 L 845.070312 -900.660156 L 845.070312 -327.554688 C 845.070312 -207.699219 813.3125 -116.554688 749.796875 -54.125 C 686.40625 8.179688 590.890625 39.332031 463.242188 39.332031 Z M 463.242188 -14.226562 C 576.28125 -14.226562 659.285156 -40.257812 712.253906 -92.320312 C 765.09375 -144.257812 791.515625 -222.667969 791.515625 -327.554688 L 791.515625 -873.882812 L 818.292969 -873.882812 L 818.292969 -847.101562 L 649.136719 -847.101562 L 649.136719 -873.882812 L 675.914062 -873.882812 L 675.914062 -328.75 C 675.914062 -257.746094 657.898438 -203.707031 621.867188 -166.632812 C 585.625 -129.34375 532.75 -110.699219 463.242188 -110.699219 C 393.082031 -110.699219 340.027344 -129.375 304.078125 -166.726562 C 268.40625 -203.789062 250.566406 -257.796875 250.566406 -328.75 L 250.566406 -873.882812 L 277.347656 -873.882812 L 277.347656 -847.101562 L 108.1875 -847.101562 L 108.1875 -873.882812 L 134.96875 -873.882812 L 134.96875 -327.554688 C 134.96875 -222.667969 161.386719 -144.257812 214.230469 -92.320312 C 267.199219 -40.257812 350.203125 -14.226562 463.242188 -14.226562 Z M 463.242188 -14.226562 "/></g></g></g><g fill="#ffffff" fill-opacity="1"><g transform="translate(927.175294, 1303.765778)"><g><path d="M 86.789062 0 L 86.789062 -900.660156 L 486.550781 -900.660156 C 544.214844 -900.660156 593.4375 -891.394531 634.214844 -872.855469 C 676.460938 -853.65625 708.574219 -826.078125 730.558594 -790.121094 C 752.308594 -754.554688 763.183594 -712.9375 763.183594 -665.273438 C 763.183594 -621.429688 752.425781 -582.574219 730.914062 -548.703125 C 709.578125 -515.109375 679.207031 -488.238281 639.808594 -468.089844 L 627.617188 -491.933594 L 654.394531 -491.933594 L 654.394531 -479.378906 L 627.617188 -479.378906 L 634.375 -505.292969 C 695.164062 -489.433594 742.355469 -460.226562 775.953125 -417.671875 C 809.679688 -374.949219 826.542969 -322.996094 826.542969 -261.804688 C 826.542969 -170.179688 798.386719 -98.992188 742.078125 -48.25 C 686.574219 1.769531 605.785156 26.777344 499.703125 26.777344 L 86.789062 26.777344 Z M 140.347656 0 L 113.570312 0 L 113.570312 -26.777344 L 499.703125 -26.777344 C 592.070312 -26.777344 660.910156 -47.199219 706.222656 -88.035156 C 750.730469 -128.144531 772.984375 -186.066406 772.984375 -261.804688 C 772.984375 -310.597656 759.960938 -351.492188 733.914062 -384.484375 C 707.738281 -417.640625 670.054688 -440.632812 620.855469 -453.46875 L 600.839844 -458.691406 L 600.839844 -508.316406 L 615.425781 -515.773438 C 646.160156 -531.492188 669.585938 -552.039062 685.707031 -577.417969 C 701.652344 -602.527344 709.625 -631.8125 709.625 -665.273438 C 709.625 -702.886719 701.371094 -735.191406 684.867188 -762.183594 C 668.597656 -788.792969 644.324219 -809.429688 612.054688 -824.101562 C 578.316406 -839.433594 536.480469 -847.101562 486.550781 -847.101562 L 113.570312 -847.101562 L 113.570312 -873.882812 L 140.347656 -873.882812 Z M 450.6875 -552.183594 C 484.078125 -552.183594 508.289062 -558.953125 523.320312 -572.496094 C 537.539062 -585.308594 544.652344 -605.875 544.652344 -634.191406 C 544.652344 -663.359375 537.609375 -684.351562 523.519531 -697.171875 C 508.703125 -710.65625 484.425781 -717.394531 450.6875 -717.394531 L 286.3125 -717.394531 L 286.3125 -744.175781 L 313.089844 -744.175781 L 313.089844 -525.40625 L 286.3125 -525.40625 L 286.3125 -552.183594 Z M 450.6875 -498.625 L 259.535156 -498.625 L 259.535156 -770.953125 L 450.6875 -770.953125 C 498.242188 -770.953125 534.535156 -759.5625 559.566406 -736.785156 C 585.328125 -713.339844 598.210938 -679.144531 598.210938 -634.191406 C 598.210938 -589.984375 585.195312 -556.15625 559.171875 -532.707031 C 533.953125 -509.988281 497.792969 -498.625 450.6875 -498.625 Z M 482.367188 -163.660156 C 523.09375 -163.660156 552.804688 -172.152344 571.511719 -189.132812 C 589.46875 -205.4375 598.445312 -231.257812 598.445312 -266.585938 C 598.445312 -302.144531 589.453125 -328.125 571.464844 -344.53125 C 552.769531 -361.585938 523.070312 -370.113281 482.367188 -370.113281 L 286.3125 -370.113281 L 286.3125 -396.894531 L 313.089844 -396.894531 L 313.089844 -136.878906 L 286.3125 -136.878906 L 286.3125 -163.660156 Z M 482.367188 -110.101562 L 259.535156 -110.101562 L 259.535156 -423.671875 L 482.367188 -423.671875 C 536.90625 -423.671875 578.636719 -410.480469 607.558594 -384.101562 C 637.1875 -357.074219 652.003906 -317.902344 652.003906 -266.585938 C 652.003906 -215.449219 637.175781 -176.414062 607.511719 -149.480469 C 578.597656 -123.226562 536.882812 -110.101562 482.367188 -110.101562 Z M 482.367188 -110.101562 "/></g></g></g><g fill="#ffa52f" fill-opacity="1"><g transform="translate(0.717246, 1303.765778)"><g><path d="M 463.25 12.546875 C 342.90625 12.546875 253.640625 -16.039062 195.453125 -73.21875 C 137.273438 -130.40625 108.1875 -215.1875 108.1875 -327.5625 L 108.1875 -873.890625 L 277.34375 -873.890625 L 277.34375 -328.75 C 277.34375 -264.988281 292.6875 -217.171875 323.375 -185.296875 C 354.0625 -153.421875 400.6875 -137.484375 463.25 -137.484375 C 587.175781 -137.484375 649.140625 -201.238281 649.140625 -328.75 L 649.140625 -873.890625 L 818.296875 -873.890625 L 818.296875 -327.5625 C 818.296875 -215.1875 789.207031 -130.40625 731.03125 -73.21875 C 672.851562 -16.039062 583.59375 12.546875 463.25 12.546875 Z M 463.25 12.546875 "/></g></g></g><g fill="#ffa52f" fill-opacity="1"><g transform="translate(927.175294, 1303.765778)"><g><path d="M 113.5625 0 L 113.5625 -873.890625 L 486.546875 -873.890625 C 540.347656 -873.890625 585.878906 -865.421875 623.140625 -848.484375 C 660.398438 -831.546875 688.59375 -807.4375 707.71875 -776.15625 C 726.84375 -744.875 736.40625 -707.914062 736.40625 -665.28125 C 736.40625 -626.625 727.039062 -592.550781 708.3125 -563.0625 C 689.582031 -533.570312 662.6875 -509.863281 627.625 -491.9375 L 627.625 -479.375 C 682.613281 -465.03125 725.050781 -438.929688 754.9375 -401.078125 C 784.820312 -363.222656 799.765625 -316.800781 799.765625 -261.8125 C 799.765625 -178.125 774.5625 -113.566406 724.15625 -68.140625 C 673.75 -22.710938 598.929688 0 499.703125 0 Z M 450.6875 -525.40625 C 531.1875 -525.40625 571.4375 -561.664062 571.4375 -634.1875 C 571.4375 -671.25 561.472656 -698.84375 541.546875 -716.96875 C 521.617188 -735.101562 491.332031 -744.171875 450.6875 -744.171875 L 286.3125 -744.171875 L 286.3125 -525.40625 Z M 482.375 -136.875 C 577.613281 -136.875 625.234375 -180.113281 625.234375 -266.59375 C 625.234375 -353.457031 577.613281 -396.890625 482.375 -396.890625 L 286.3125 -396.890625 L 286.3125 -136.875 Z M 482.375 -136.875 "/></g></g></g></g></g><g transform="matrix(1, 0, 0, 1, 0, 246)"><g clip-path="url(#22318167d1)"><g fill="#ffffff" fill-opacity="1"><g transform="translate(0.0001101, 1125.16158)"><g><path d="M 628.222656 -868.433594 L 715.078125 -868.433594 L 715.078125 -615.53125 L 701.195312 -615.53125 L 701.195312 -629.410156 L 927.660156 -629.410156 L 927.660156 -535.019531 L 699.082031 -535.019531 L 699.082031 -548.902344 L 712.964844 -548.902344 C 712.964844 -545.726562 712.773438 -541.667969 712.394531 -536.730469 C 712.066406 -532.503906 711.90625 -529.15625 711.90625 -526.691406 C 711.90625 -518.066406 711.726562 -508.734375 711.367188 -498.699219 C 710.992188 -488.226562 710.050781 -478.464844 708.542969 -469.414062 L 694.851562 -471.695312 L 694.851562 -485.578125 L 766.902344 -485.578125 L 766.902344 -47.59375 C 766.902344 -40.410156 768.242188 -35.429688 770.925781 -32.65625 C 773.488281 -30.011719 778.09375 -28.6875 784.75 -28.6875 C 792.773438 -28.6875 800.464844 -29.609375 807.820312 -31.445312 L 808.140625 -31.527344 L 808.464844 -31.589844 C 811.5625 -32.210938 813.464844 -33.09375 814.171875 -34.246094 C 816.578125 -38.152344 819.042969 -43.261719 821.566406 -49.574219 L 834.457031 -44.417969 L 821.285156 -48.808594 C 823.082031 -54.199219 824.632812 -63.089844 825.9375 -75.484375 C 827.320312 -88.617188 828.359375 -102.457031 829.050781 -116.996094 C 829.75 -131.707031 830.277344 -145.707031 830.625 -159.007812 C 830.976562 -172.28125 831.152344 -182.382812 831.152344 -189.3125 L 831.152344 -210.246094 L 934.003906 -166.789062 L 934.003906 -157.585938 C 934.003906 -155.035156 933.691406 -152.503906 933.0625 -149.988281 C 932.984375 -149.683594 932.945312 -149.042969 932.945312 -148.066406 L 932.945312 -147.617188 L 930.273438 -106.449219 C 929.203125 -89.703125 927.777344 -72.777344 925.996094 -55.671875 C 924.199219 -38.429688 922.042969 -22.601562 919.519531 -8.183594 C 916.78125 7.453125 913.273438 19.128906 908.988281 26.835938 C 903.363281 37.148438 894.800781 45.066406 883.296875 50.589844 C 873.460938 55.308594 862.878906 58.839844 851.546875 61.1875 C 840.546875 63.460938 829.363281 64.789062 817.996094 65.167969 C 807.265625 65.527344 797.945312 65.703125 790.035156 65.703125 C 784.898438 65.703125 778.175781 65.523438 769.867188 65.164062 C 761.386719 64.792969 752.726562 64.058594 743.894531 62.953125 C 734.726562 61.808594 726.097656 60.078125 718.007812 57.765625 C 709.214844 55.253906 702.101562 52.1875 696.667969 48.566406 L 696.105469 48.191406 L 695.578125 47.761719 C 685.449219 39.472656 678.777344 28.90625 675.566406 16.058594 C 672.824219 5.082031 671.449219 -5.558594 671.449219 -15.863281 L 671.449219 -370.164062 L 685.332031 -370.164062 L 699.011719 -367.8125 C 691.203125 -322.375 682.503906 -279.9375 672.910156 -240.5 C 663.226562 -200.699219 650.855469 -162.324219 635.789062 -125.375 C 620.652344 -88.261719 601.570312 -51.890625 578.539062 -16.261719 C 555.515625 19.351562 526.445312 55.792969 491.316406 93.070312 L 480.132812 104.9375 L 417.308594 23.121094 L 425.921875 14.507812 C 459.375 -18.945312 487.046875 -58.070312 508.929688 -102.863281 C 531.132812 -148.308594 549.347656 -196.019531 563.578125 -245.996094 C 577.867188 -296.179688 588.84375 -347.066406 596.511719 -398.644531 C 604.246094 -450.691406 610.929688 -500.265625 616.554688 -547.375 L 617.121094 -552.144531 L 620.519531 -555.542969 C 619.0625 -554.082031 618.109375 -552.460938 617.664062 -550.679688 C 617.585938 -550.378906 617.539062 -550.113281 617.515625 -549.886719 L 617.511719 -549.957031 L 617.511719 -555.246094 L 631.394531 -555.246094 L 631.394531 -541.363281 L 484.253906 -541.363281 L 484.253906 -635.757812 L 632.453125 -635.757812 L 632.453125 -621.875 L 618.574219 -621.625 L 614.085938 -868.433594 Z M 628.222656 -840.667969 L 628.222656 -854.550781 L 642.101562 -854.804688 L 646.589844 -607.996094 L 498.136719 -607.996094 L 498.136719 -621.875 L 512.015625 -621.875 L 512.015625 -555.246094 L 498.136719 -555.246094 L 498.136719 -569.128906 L 645.277344 -569.128906 L 645.277344 -549.957031 C 645.277344 -544.011719 643.566406 -539.328125 640.152344 -535.910156 L 630.335938 -545.726562 L 644.121094 -544.082031 C 638.464844 -496.710938 631.75 -446.871094 623.972656 -394.5625 C 616.128906 -341.792969 604.898438 -289.734375 590.277344 -238.390625 C 575.597656 -186.835938 556.796875 -137.597656 533.875 -90.679688 C 510.632812 -43.105469 481.191406 -1.5 445.550781 34.140625 L 435.734375 24.324219 L 446.746094 15.871094 L 492.222656 75.097656 L 481.214844 83.550781 L 471.109375 74.03125 C 505.082031 37.980469 533.117188 2.859375 555.222656 -31.332031 C 577.316406 -65.507812 595.601562 -100.347656 610.078125 -135.855469 C 624.625 -171.53125 636.578125 -208.597656 645.933594 -247.058594 C 655.375 -285.882812 663.949219 -327.703125 671.652344 -372.515625 L 699.214844 -370.164062 L 699.214844 -15.863281 C 699.214844 -7.835938 700.308594 0.558594 702.5 9.324219 C 704.226562 16.21875 707.777344 21.871094 713.160156 26.273438 L 704.371094 37.015625 L 712.070312 25.464844 C 715.097656 27.484375 719.621094 29.355469 725.632812 31.074219 C 732.351562 32.992188 739.585938 34.4375 747.339844 35.40625 C 755.425781 36.414062 763.339844 37.089844 771.074219 37.425781 C 778.980469 37.769531 785.300781 37.941406 790.035156 37.941406 C 797.636719 37.941406 806.648438 37.769531 817.070312 37.421875 C 826.855469 37.09375 836.472656 35.953125 845.921875 34 C 855.035156 32.113281 863.488281 29.300781 871.28125 25.558594 C 877.40625 22.621094 881.882812 18.550781 884.71875 13.351562 C 887.488281 8.371094 889.972656 -0.402344 892.171875 -12.96875 C 894.582031 -26.753906 896.652344 -41.945312 898.382812 -58.550781 C 900.128906 -75.289062 901.523438 -91.851562 902.570312 -108.246094 L 905.210938 -148.964844 L 919.066406 -148.066406 L 905.183594 -148.066406 C 905.183594 -151.320312 905.496094 -154.203125 906.125 -156.71875 C 906.203125 -157.023438 906.242188 -157.3125 906.242188 -157.585938 L 920.121094 -157.585938 L 914.71875 -144.796875 L 839.628906 -176.527344 L 845.03125 -189.3125 L 858.914062 -189.3125 C 858.914062 -182.140625 858.734375 -171.792969 858.378906 -158.277344 C 858.023438 -144.78125 857.492188 -130.582031 856.78125 -115.675781 C 856.066406 -100.605469 854.988281 -86.242188 853.550781 -72.578125 C 852.035156 -58.179688 850.058594 -47.332031 847.625 -40.03125 L 847.496094 -39.644531 L 847.34375 -39.265625 C 844.230469 -31.476562 841.054688 -24.953125 837.816406 -19.695312 C 832.882812 -11.675781 824.914062 -6.566406 813.910156 -4.367188 L 811.1875 -17.980469 L 814.554688 -4.511719 C 804.988281 -2.121094 795.054688 -0.925781 784.75 -0.925781 C 770.25 -0.925781 758.992188 -5.066406 750.976562 -13.347656 C 743.085938 -21.503906 739.136719 -32.917969 739.136719 -47.59375 L 739.136719 -471.695312 L 753.019531 -471.695312 L 753.019531 -457.8125 L 678.464844 -457.8125 L 681.160156 -473.976562 C 682.46875 -481.847656 683.292969 -490.417969 683.621094 -499.6875 C 683.96875 -509.394531 684.140625 -518.394531 684.140625 -526.691406 C 684.140625 -529.867188 684.332031 -533.921875 684.710938 -538.859375 C 685.039062 -543.089844 685.199219 -546.4375 685.199219 -548.902344 L 685.199219 -562.78125 L 913.777344 -562.78125 L 913.777344 -548.902344 L 899.894531 -548.902344 L 899.894531 -615.53125 L 913.777344 -615.53125 L 913.777344 -601.648438 L 687.316406 -601.648438 L 687.316406 -854.550781 L 701.195312 -854.550781 L 701.195312 -840.667969 Z M 348.085938 3.171875 C 348.085938 36.707031 339.890625 59.625 323.496094 71.917969 C 308.339844 83.289062 285.113281 88.972656 253.828125 88.972656 C 237.886719 88.972656 222.121094 88.246094 206.535156 86.796875 C 190.9375 85.347656 175.515625 83.167969 160.273438 80.265625 L 150.699219 78.441406 L 134.175781 -25.191406 L 154.769531 -19.769531 C 167.601562 -16.394531 180.421875 -13.863281 193.238281 -12.175781 C 206.035156 -10.492188 219.179688 -9.652344 232.675781 -9.652344 C 237.445312 -9.652344 240.582031 -10.84375 242.089844 -13.230469 C 244.890625 -17.664062 246.292969 -23.476562 246.292969 -30.671875 L 246.292969 -303.535156 L 260.171875 -303.535156 L 260.171875 -289.652344 L 99.28125 -289.652344 L 99.28125 -574.414062 L 482.402344 -574.414062 L 482.402344 -289.652344 L 335.261719 -289.652344 L 335.261719 -303.535156 L 349.144531 -303.488281 L 348.085938 3.21875 Z M 320.324219 3.125 L 321.429688 -317.417969 L 468.523438 -317.417969 L 468.523438 -303.535156 L 454.640625 -303.535156 L 454.640625 -560.535156 L 468.523438 -560.535156 L 468.523438 -546.652344 L 113.164062 -546.652344 L 113.164062 -560.535156 L 127.046875 -560.535156 L 127.046875 -303.535156 L 113.164062 -303.535156 L 113.164062 -317.417969 L 274.054688 -317.417969 L 274.054688 -30.671875 C 274.054688 -18.121094 271.222656 -7.367188 265.5625 1.597656 C 258.609375 12.605469 247.644531 18.113281 232.675781 18.113281 C 217.96875 18.113281 203.613281 17.191406 189.617188 15.347656 C 175.640625 13.511719 161.667969 10.753906 147.707031 7.078125 L 151.238281 -6.34375 L 164.945312 -8.53125 L 176.582031 64.445312 L 162.871094 66.628906 L 165.46875 52.992188 C 179.84375 55.730469 194.386719 57.785156 209.105469 59.152344 C 223.839844 60.523438 238.746094 61.207031 253.828125 61.207031 C 278.945312 61.207031 296.617188 57.375 306.839844 49.707031 C 315.828125 42.964844 320.324219 27.453125 320.324219 3.171875 Z M 533.167969 -718.117188 L 533.167969 -640.78125 L 46.402344 -640.78125 L 46.402344 -733.058594 L 260.171875 -733.058594 L 260.171875 -719.175781 L 246.292969 -719.175781 L 246.292969 -891.699219 L 348.085938 -891.699219 L 348.085938 -719.175781 L 334.207031 -719.175781 L 334.285156 -733.058594 L 533.167969 -731.921875 Z M 505.40625 -718.117188 L 519.289062 -718.117188 L 519.207031 -704.238281 L 320.324219 -705.375 L 320.324219 -877.816406 L 334.207031 -877.816406 L 334.207031 -863.9375 L 260.171875 -863.9375 L 260.171875 -877.816406 L 274.054688 -877.816406 L 274.054688 -705.292969 L 60.285156 -705.292969 L 60.285156 -719.175781 L 74.164062 -719.175781 L 74.164062 -654.660156 L 60.285156 -654.660156 L 60.285156 -668.542969 L 519.289062 -668.542969 L 519.289062 -654.660156 L 505.40625 -654.660156 Z M 182.96875 -375.585938 L 397.664062 -375.585938 L 397.664062 -361.703125 L 383.78125 -361.703125 L 383.78125 -496.019531 L 397.664062 -496.019531 L 397.664062 -482.136719 L 184.023438 -482.136719 L 184.023438 -496.019531 L 197.90625 -495.910156 L 196.847656 -361.59375 L 182.96875 -361.703125 Z M 168.976562 -347.820312 L 170.25 -509.902344 L 411.542969 -509.902344 L 411.542969 -347.820312 Z M 39.804688 -55.59375 C 57.789062 -86.726562 73.53125 -119.421875 87.027344 -153.683594 C 100.585938 -188.101562 112.234375 -223.390625 121.96875 -259.550781 L 125.921875 -274.230469 L 220.75 -239.214844 L 217.542969 -227.027344 C 206.855469 -186.40625 194.203125 -146.320312 179.59375 -106.769531 C 164.847656 -66.835938 146.324219 -28.171875 124.03125 9.222656 L 115.589844 23.382812 L 43.847656 -38.109375 L 52.878906 -48.648438 L 52.878906 -34.769531 L 27.769531 -34.769531 Z M 63.84375 -41.707031 L 51.824219 -48.648438 L 51.824219 -62.53125 L 58.015625 -62.53125 L 121.140625 -8.425781 L 112.105469 2.113281 L 100.183594 -4.992188 C 121.605469 -40.925781 139.394531 -78.054688 153.550781 -116.386719 C 167.851562 -155.101562 180.230469 -194.335938 190.695312 -234.09375 L 204.117188 -230.558594 L 199.3125 -217.539062 L 130.566406 -242.921875 L 135.375 -255.941406 L 148.777344 -252.332031 C 138.773438 -215.167969 126.800781 -178.890625 112.859375 -143.507812 C 98.859375 -107.964844 82.519531 -74.03125 63.84375 -41.707031 Z M 423.769531 -68.175781 C 414.003906 -94.679688 403.367188 -120.835938 391.859375 -146.640625 C 380.554688 -171.988281 367.023438 -196.308594 351.261719 -219.609375 L 342.890625 -231.984375 L 423.398438 -278.203125 L 430.8125 -268.71875 C 448.84375 -245.636719 464.898438 -221.820312 478.976562 -197.277344 C 493.105469 -172.640625 504.886719 -147.625 514.320312 -122.226562 L 517.421875 -113.878906 L 511.125 -107.578125 C 509.199219 -105.65625 504.066406 -101.660156 495.722656 -95.59375 L 471.960938 -78.308594 L 471.433594 -77.992188 C 468.316406 -76.125 465.539062 -74.273438 463.101562 -72.445312 C 460.078125 -70.175781 457.398438 -68.265625 455.070312 -66.714844 L 447.371094 -78.261719 L 455.699219 -67.15625 C 452.671875 -64.890625 449.996094 -62.976562 447.667969 -61.425781 L 444.167969 -59.09375 L 427.113281 -59.09375 Z M 449.820312 -77.773438 L 436.792969 -72.976562 L 436.792969 -86.855469 L 439.964844 -86.855469 L 439.964844 -72.976562 L 432.265625 -84.523438 C 434.167969 -85.792969 436.425781 -87.40625 439.039062 -89.367188 L 439.347656 -89.601562 L 439.667969 -89.8125 C 441.570312 -91.082031 443.828125 -92.695312 446.445312 -94.65625 C 449.644531 -97.058594 453.214844 -99.4375 457.148438 -101.800781 L 464.292969 -89.898438 L 456.128906 -101.125 L 479.394531 -118.046875 C 486.5625 -123.257812 490.59375 -126.3125 491.492188 -127.210938 L 501.308594 -117.394531 L 488.296875 -112.5625 C 479.394531 -136.519531 468.261719 -160.15625 454.894531 -183.464844 C 441.472656 -206.863281 426.152344 -229.585938 408.933594 -251.625 L 419.871094 -260.171875 L 426.78125 -248.132812 L 369.671875 -215.347656 L 362.761719 -227.386719 L 374.257812 -235.164062 C 390.929688 -210.519531 405.25 -184.78125 417.214844 -157.949219 C 428.972656 -131.582031 439.84375 -104.855469 449.820312 -77.773438 Z M 790.667969 -636.367188 C 772.691406 -688.222656 749.1875 -736.960938 720.15625 -782.582031 L 712.566406 -794.507812 L 792.894531 -843.597656 L 800.367188 -832.875 C 816.820312 -809.265625 832.199219 -784.945312 846.507812 -759.90625 C 860.871094 -734.769531 873.445312 -709.617188 884.230469 -684.457031 L 889.039062 -673.234375 L 810.75 -627.03125 L 793.90625 -627.03125 Z M 816.902344 -645.460938 L 803.785156 -640.914062 L 803.785156 -654.792969 L 806.957031 -654.792969 L 806.957031 -640.914062 L 799.902344 -652.867188 L 864.417969 -690.941406 L 871.472656 -678.988281 L 858.714844 -673.519531 C 848.34375 -697.710938 836.242188 -721.914062 822.402344 -746.132812 C 808.507812 -770.449219 793.570312 -794.074219 777.589844 -817 L 788.980469 -824.9375 L 796.21875 -813.09375 L 739.105469 -778.191406 L 731.867188 -790.035156 L 743.578125 -797.488281 C 773.773438 -750.039062 798.214844 -699.363281 816.902344 -645.460938 Z M 816.902344 -645.460938 "/></g></g></g><g fill="#727273" fill-opacity="1"><g transform="translate(0.0001101, 1125.16158)"><g><path d="M 628.21875 -854.546875 L 701.1875 -854.546875 L 701.1875 -615.53125 L 913.78125 -615.53125 L 913.78125 -548.90625 L 699.078125 -548.90625 C 699.078125 -546.082031 698.898438 -542.378906 698.546875 -537.796875 C 698.191406 -533.210938 698.015625 -529.507812 698.015625 -526.6875 C 698.015625 -518.226562 697.835938 -509.0625 697.484375 -499.1875 C 697.140625 -489.320312 696.257812 -480.15625 694.84375 -471.6875 L 753.015625 -471.6875 L 753.015625 -47.59375 C 753.015625 -25.738281 763.59375 -14.8125 784.75 -14.8125 C 793.914062 -14.8125 802.726562 -15.867188 811.1875 -17.984375 C 818.238281 -19.390625 823.171875 -22.382812 825.984375 -26.96875 C 828.804688 -31.550781 831.628906 -37.367188 834.453125 -44.421875 C 836.566406 -50.765625 838.328125 -60.632812 839.734375 -74.03125 C 841.148438 -87.425781 842.207031 -101.523438 842.90625 -116.328125 C 843.613281 -131.140625 844.144531 -145.242188 844.5 -158.640625 C 844.851562 -172.035156 845.03125 -182.257812 845.03125 -189.3125 L 920.125 -157.578125 C 920.125 -156.171875 919.945312 -154.757812 919.59375 -153.34375 C 919.238281 -151.9375 919.0625 -150.175781 919.0625 -148.0625 C 918.351562 -137.488281 917.46875 -123.914062 916.40625 -107.34375 C 915.351562 -90.78125 913.945312 -74.035156 912.1875 -57.109375 C 910.425781 -40.191406 908.3125 -24.679688 905.84375 -10.578125 C 903.375 3.523438 900.378906 13.75 896.859375 20.09375 C 892.617188 27.851562 886.09375 33.847656 877.28125 38.078125 C 868.46875 42.304688 858.945312 45.476562 848.71875 47.59375 C 838.5 49.707031 828.101562 50.941406 817.53125 51.296875 C 806.957031 51.648438 797.789062 51.828125 790.03125 51.828125 C 785.09375 51.828125 778.570312 51.648438 770.46875 51.296875 C 762.363281 50.941406 754.078125 50.234375 745.609375 49.171875 C 737.148438 48.117188 729.21875 46.535156 721.8125 44.421875 C 714.414062 42.304688 708.601562 39.835938 704.375 37.015625 C 696.613281 30.671875 691.5 22.5625 689.03125 12.6875 C 686.5625 2.820312 685.328125 -6.691406 685.328125 -15.859375 L 685.328125 -370.15625 C 677.578125 -325.03125 668.941406 -282.898438 659.421875 -243.765625 C 649.898438 -204.640625 637.734375 -166.921875 622.921875 -130.609375 C 608.117188 -94.296875 589.4375 -58.6875 566.875 -23.78125 C 544.3125 11.113281 515.757812 46.890625 481.21875 83.546875 L 435.734375 24.328125 C 470.285156 -10.222656 498.84375 -50.585938 521.40625 -96.765625 C 543.96875 -142.953125 562.472656 -191.425781 576.921875 -242.1875 C 591.378906 -292.957031 602.484375 -344.425781 610.234375 -396.59375 C 617.992188 -448.769531 624.691406 -498.476562 630.328125 -545.71875 C 631.035156 -546.425781 631.390625 -547.835938 631.390625 -549.953125 C 631.390625 -552.066406 631.390625 -553.832031 631.390625 -555.25 L 498.140625 -555.25 L 498.140625 -621.875 L 632.453125 -621.875 Z M 334.203125 3.171875 C 334.203125 32.078125 327.851562 51.289062 315.15625 60.8125 C 302.46875 70.332031 282.023438 75.09375 253.828125 75.09375 C 238.316406 75.09375 222.976562 74.382812 207.8125 72.96875 C 192.65625 71.5625 177.675781 69.445312 162.875 66.625 L 151.234375 -6.34375 C 164.628906 -2.820312 178.023438 -0.179688 191.421875 1.578125 C 204.816406 3.347656 218.566406 4.234375 232.671875 4.234375 C 242.546875 4.234375 249.597656 0.882812 253.828125 -5.8125 C 258.054688 -12.507812 260.171875 -20.796875 260.171875 -30.671875 L 260.171875 -303.53125 L 113.171875 -303.53125 L 113.171875 -560.53125 L 468.515625 -560.53125 L 468.515625 -303.53125 L 335.265625 -303.53125 Z M 519.28125 -718.109375 L 519.28125 -654.65625 L 60.28125 -654.65625 L 60.28125 -719.171875 L 260.171875 -719.171875 L 260.171875 -877.8125 L 334.203125 -877.8125 L 334.203125 -719.171875 Z M 182.96875 -361.703125 L 397.65625 -361.703125 L 397.65625 -496.015625 L 184.03125 -496.015625 Z M 51.828125 -48.65625 C 70.160156 -80.382812 86.195312 -113.695312 99.9375 -148.59375 C 113.6875 -183.5 125.5 -219.28125 135.375 -255.9375 L 204.125 -230.5625 C 193.539062 -190.375 181.019531 -150.710938 166.5625 -111.578125 C 152.113281 -72.441406 133.960938 -34.546875 112.109375 2.109375 L 52.875 -48.65625 Z M 436.796875 -72.96875 C 426.921875 -99.769531 416.164062 -126.210938 404.53125 -152.296875 C 392.894531 -178.378906 378.972656 -203.410156 362.765625 -227.390625 L 419.875 -260.171875 C 437.5 -237.609375 453.1875 -214.335938 466.9375 -190.359375 C 480.6875 -166.390625 492.144531 -142.066406 501.3125 -117.390625 C 499.894531 -115.984375 495.304688 -112.457031 487.546875 -106.8125 C 479.796875 -101.175781 472.046875 -95.535156 464.296875 -89.890625 C 460.765625 -87.773438 457.585938 -85.660156 454.765625 -83.546875 C 451.953125 -81.429688 449.488281 -79.671875 447.375 -78.265625 C 444.550781 -76.148438 442.082031 -74.382812 439.96875 -72.96875 Z M 803.78125 -640.90625 C 785.445312 -693.789062 761.472656 -743.5 731.859375 -790.03125 L 788.96875 -824.9375 C 805.1875 -801.664062 820.347656 -777.691406 834.453125 -753.015625 C 848.554688 -728.335938 860.894531 -703.660156 871.46875 -678.984375 L 806.953125 -640.90625 Z M 803.78125 -640.90625 "/></g></g></g></g></g><g transform="matrix(1, 0, 0, 1, 1066, 347)"><g clip-path="url(#2f514654ba)"><g fill="#ffffff" fill-opacity="1"><g transform="translate(0.369473, 555.688122)"><g><path d="M 373.628906 -143.039062 C 373.628906 -128.738281 373.183594 -113.996094 372.289062 -98.816406 C 371.347656 -82.8125 368.421875 -67.628906 363.507812 -53.265625 C 357.691406 -36.589844 350.285156 -23.359375 341.292969 -13.566406 C 332.207031 -3.671875 321.675781 3.710938 309.691406 8.582031 C 298.222656 13.25 285.570312 16.160156 271.730469 17.3125 C 258.742188 18.394531 245.050781 18.9375 230.65625 18.9375 L 219.109375 18.9375 L 219.109375 -42.6875 L 230.65625 -42.6875 C 236.1875 -42.6875 242.335938 -42.773438 249.097656 -42.949219 C 255.355469 -43.109375 261.53125 -43.75 267.625 -44.871094 C 273.421875 -45.941406 278.898438 -47.609375 284.054688 -49.886719 C 288.28125 -51.75 291.734375 -54.390625 294.417969 -57.804688 L 294.570312 -57.996094 L 294.730469 -58.183594 C 296.011719 -59.679688 297.117188 -61.597656 298.054688 -63.929688 C 299.375 -67.242188 300.53125 -70.371094 301.515625 -73.324219 L 312.46875 -69.671875 L 301.3125 -72.648438 C 302.628906 -77.585938 303.785156 -82.964844 304.78125 -88.777344 C 305.796875 -94.699219 306.644531 -100.796875 307.324219 -107.070312 C 308.003906 -113.371094 308.515625 -119.675781 308.855469 -125.980469 C 309.195312 -132.28125 309.367188 -137.96875 309.367188 -143.039062 L 309.367188 -265.492188 L 320.914062 -265.492188 L 320.914062 -253.945312 L 193.179688 -253.945312 L 193.179688 -265.492188 L 204.726562 -265.492188 L 204.726562 -262.324219 C 204.726562 -242.574219 203.914062 -224.847656 202.289062 -209.148438 C 200.640625 -193.179688 197.789062 -178.015625 193.738281 -163.65625 C 189.695312 -149.328125 184.285156 -134.929688 177.511719 -120.460938 C 170.855469 -106.246094 162.511719 -90.542969 152.484375 -73.355469 C 147.140625 -64.09375 141.34375 -54.554688 135.097656 -44.734375 L 117.40625 -17.011719 L 93.761719 20.964844 L 41.269531 -14.03125 L 81.519531 -78.429688 C 93.386719 -97.277344 103.140625 -113.5625 110.78125 -127.28125 C 118.183594 -140.5625 124.054688 -153.644531 128.40625 -166.527344 C 132.726562 -179.328125 135.808594 -193.253906 137.648438 -208.304688 C 139.527344 -223.675781 140.464844 -242.5625 140.464844 -264.964844 L 140.464844 -265.492188 L 152.011719 -265.492188 L 152.011719 -253.945312 L 23.289062 -253.945312 L 23.289062 -315.042969 L 152.539062 -315.042969 L 152.539062 -303.496094 L 140.992188 -303.496094 L 140.992188 -427.996094 L 205.253906 -427.996094 L 205.253906 -303.496094 L 193.710938 -303.496094 L 193.710938 -315.042969 L 373.628906 -315.042969 Z M 350.535156 -143.039062 L 350.535156 -303.496094 L 362.082031 -303.496094 L 362.082031 -291.949219 L 182.164062 -291.949219 L 182.164062 -416.449219 L 193.710938 -416.449219 L 193.710938 -404.902344 L 152.539062 -404.902344 L 152.539062 -416.449219 L 164.085938 -416.449219 L 164.085938 -291.949219 L 34.835938 -291.949219 L 34.835938 -303.496094 L 46.382812 -303.496094 L 46.382812 -265.492188 L 34.835938 -265.492188 L 34.835938 -277.039062 L 163.558594 -277.039062 L 163.558594 -264.964844 C 163.558594 -241.625 162.5625 -221.804688 160.570312 -205.503906 C 158.539062 -188.886719 155.109375 -173.433594 150.28125 -159.136719 C 145.484375 -144.921875 139.042969 -130.558594 130.957031 -116.042969 C 123.117188 -101.964844 113.164062 -85.347656 101.105469 -66.191406 L 66.796875 -11.296875 L 57.003906 -17.417969 L 63.410156 -27.023438 L 96.660156 -4.855469 L 90.257812 4.75 L 80.457031 -1.351562 L 97.941406 -29.433594 L 115.617188 -57.132812 C 121.683594 -66.667969 127.324219 -75.953125 132.539062 -84.992188 C 142.214844 -101.582031 150.234375 -116.667969 156.597656 -130.253906 C 162.839844 -143.582031 167.8125 -156.808594 171.511719 -169.925781 C 175.203125 -183.011719 177.804688 -196.875 179.320312 -211.523438 C 180.863281 -226.433594 181.636719 -243.371094 181.636719 -262.324219 L 181.636719 -277.039062 L 332.460938 -277.039062 L 332.460938 -143.039062 C 332.460938 -137.550781 332.277344 -131.449219 331.914062 -124.734375 C 331.550781 -118.015625 331.007812 -111.300781 330.28125 -104.585938 C 329.550781 -97.839844 328.640625 -91.269531 327.542969 -84.875 C 326.429688 -78.371094 325.121094 -72.3125 323.625 -66.695312 L 323.535156 -66.355469 L 323.421875 -66.019531 C 322.292969 -62.640625 320.984375 -59.085938 319.492188 -55.355469 C 317.613281 -50.652344 315.203125 -46.585938 312.261719 -43.15625 L 303.496094 -50.671875 L 312.574219 -43.535156 C 307.515625 -37.097656 301.117188 -32.171875 293.375 -28.757812 C 286.570312 -25.753906 279.378906 -23.554688 271.804688 -22.160156 C 264.527344 -20.820312 257.15625 -20.054688 249.691406 -19.863281 C 242.730469 -19.683594 236.386719 -19.59375 230.65625 -19.59375 L 230.65625 -31.140625 L 242.203125 -31.140625 L 242.203125 7.390625 L 230.65625 7.390625 L 230.65625 -4.15625 C 244.410156 -4.15625 257.464844 -4.671875 269.8125 -5.699219 C 281.308594 -6.660156 291.699219 -9.027344 300.992188 -12.804688 C 309.773438 -16.378906 317.535156 -21.839844 324.285156 -29.1875 C 331.128906 -36.636719 336.917969 -47.15625 341.65625 -60.742188 C 345.894531 -73.121094 348.417969 -86.265625 349.238281 -100.171875 C 350.105469 -114.902344 350.535156 -129.191406 350.535156 -143.039062 Z M 350.535156 -143.039062 "/></g></g></g><g fill="#ffffff" fill-opacity="1"><g transform="translate(0.369473, 1078.01799)"><g><path d="M 369.511719 -192.484375 L 361.59375 -180.871094 C 351.980469 -167.335938 341.707031 -153.074219 330.769531 -138.082031 C 319.746094 -122.96875 308.894531 -108.824219 298.210938 -95.652344 C 284.511719 -78.707031 270.691406 -63.714844 256.75 -50.683594 C 242.53125 -37.382812 227.363281 -26.195312 211.25 -17.121094 C 195.03125 -7.988281 177.53125 -1.09375 158.746094 3.554688 C 140.0625 8.179688 119.34375 10.492188 96.589844 10.492188 L 42.820312 10.492188 L 42.820312 -409.519531 L 109.140625 -409.519531 L 110.777344 -40.691406 L 110.777344 -40.113281 L 99.230469 -40.113281 L 99.230469 -51.660156 C 116.449219 -51.660156 131.929688 -53.625 145.671875 -57.550781 C 159.445312 -61.484375 172.21875 -67.050781 183.992188 -74.246094 C 195.851562 -81.492188 206.90625 -90.320312 217.148438 -100.730469 C 227.8125 -111.566406 238.664062 -123.710938 249.703125 -137.167969 C 261.515625 -151.753906 272.816406 -166.449219 283.609375 -181.246094 C 294.480469 -196.152344 305.351562 -211.320312 316.226562 -226.75 L 322.472656 -235.621094 L 376.328125 -202.480469 Z M 350.433594 -205.492188 L 359.972656 -198.988281 L 353.921875 -189.152344 L 319.613281 -210.265625 L 325.664062 -220.101562 L 335.101562 -213.449219 C 324.15625 -197.914062 313.210938 -182.644531 302.265625 -167.640625 C 291.246094 -152.527344 279.675781 -137.488281 267.558594 -122.519531 C 256.074219 -108.527344 244.757812 -95.863281 233.609375 -84.535156 C 222.035156 -72.773438 209.511719 -62.777344 196.035156 -54.542969 C 182.472656 -46.253906 167.800781 -39.855469 152.015625 -35.347656 C 136.199219 -30.828125 118.605469 -28.566406 99.230469 -28.566406 L 87.683594 -28.566406 L 87.683594 -40.589844 L 86.101562 -397.921875 L 97.644531 -397.972656 L 97.644531 -386.429688 L 54.363281 -386.429688 L 54.363281 -397.972656 L 65.910156 -397.972656 L 65.910156 -1.054688 L 54.363281 -1.054688 L 54.363281 -12.601562 L 96.589844 -12.601562 C 117.46875 -12.601562 136.335938 -14.6875 153.195312 -18.859375 C 169.949219 -23.007812 185.523438 -29.136719 199.917969 -37.242188 C 214.421875 -45.410156 228.109375 -55.511719 240.980469 -67.550781 C 254.136719 -79.851562 267.234375 -94.066406 280.277344 -110.195312 C 290.707031 -123.0625 301.320312 -136.894531 312.113281 -151.691406 C 322.992188 -166.605469 333.128906 -180.671875 342.515625 -193.878906 Z M 350.433594 -205.492188 "/></g></g></g><g fill="#727273" fill-opacity="1"><g transform="translate(0.369473, 555.688122)"><g><path d="M 362.078125 -143.03125 C 362.078125 -128.957031 361.632812 -114.441406 360.75 -99.484375 C 359.875 -84.535156 357.148438 -70.375 352.578125 -57 C 347.296875 -41.875 340.695312 -30 332.78125 -21.375 C 324.863281 -12.75 315.710938 -6.328125 305.328125 -2.109375 C 294.953125 2.109375 283.429688 4.742188 270.765625 5.796875 C 258.097656 6.859375 244.726562 7.390625 230.65625 7.390625 L 230.65625 -31.140625 C 236.28125 -31.140625 242.523438 -31.226562 249.390625 -31.40625 C 256.253906 -31.582031 263.023438 -32.285156 269.703125 -33.515625 C 276.390625 -34.742188 282.722656 -36.675781 288.703125 -39.3125 C 294.691406 -41.957031 299.617188 -45.742188 303.484375 -50.671875 C 305.597656 -53.128906 307.359375 -56.117188 308.765625 -59.640625 C 310.171875 -63.160156 311.40625 -66.503906 312.46875 -69.671875 C 313.875 -74.953125 315.101562 -80.671875 316.15625 -86.828125 C 317.21875 -92.984375 318.097656 -99.316406 318.796875 -105.828125 C 319.503906 -112.335938 320.03125 -118.847656 320.375 -125.359375 C 320.726562 -131.867188 320.90625 -137.757812 320.90625 -143.03125 L 320.90625 -265.484375 L 193.171875 -265.484375 L 193.171875 -262.328125 C 193.171875 -242.972656 192.378906 -225.640625 190.796875 -210.328125 C 189.210938 -195.023438 186.484375 -180.507812 182.609375 -166.78125 C 178.742188 -153.0625 173.554688 -139.25 167.046875 -125.34375 C 160.535156 -111.445312 152.359375 -96.054688 142.515625 -79.171875 C 137.234375 -70.023438 131.515625 -60.613281 125.359375 -50.9375 C 119.203125 -41.257812 113.304688 -32.019531 107.671875 -23.21875 L 90.25 4.75 L 57 -17.421875 L 91.3125 -72.3125 C 103.269531 -91.3125 113.117188 -107.757812 120.859375 -121.65625 C 128.609375 -135.5625 134.769531 -149.285156 139.34375 -162.828125 C 143.914062 -176.378906 147.171875 -191.070312 149.109375 -206.90625 C 151.046875 -222.738281 152.015625 -242.09375 152.015625 -264.96875 L 152.015625 -265.484375 L 34.828125 -265.484375 L 34.828125 -303.484375 L 152.53125 -303.484375 L 152.53125 -416.4375 L 193.703125 -416.4375 L 193.703125 -303.484375 L 362.078125 -303.484375 Z M 362.078125 -143.03125 "/></g></g></g><g fill="#727273" fill-opacity="1"><g transform="translate(0.369473, 1078.01799)"><g><path d="M 359.96875 -198.984375 L 352.046875 -187.375 C 342.546875 -174 332.34375 -159.832031 321.4375 -144.875 C 310.53125 -129.925781 299.796875 -115.941406 289.234375 -102.921875 C 275.867188 -86.378906 262.410156 -71.773438 248.859375 -59.109375 C 235.316406 -46.441406 220.890625 -35.796875 205.578125 -27.171875 C 190.273438 -18.554688 173.738281 -12.050781 155.96875 -7.65625 C 138.195312 -3.257812 118.40625 -1.0625 96.59375 -1.0625 L 54.359375 -1.0625 L 54.359375 -397.96875 L 97.640625 -397.96875 L 99.234375 -40.640625 L 99.234375 -40.109375 C 117.523438 -40.109375 134.0625 -42.21875 148.84375 -46.4375 C 163.625 -50.664062 177.347656 -56.648438 190.015625 -64.390625 C 202.679688 -72.128906 214.46875 -81.539062 225.375 -92.625 C 236.28125 -103.707031 247.363281 -116.113281 258.625 -129.84375 C 270.59375 -144.625 282.03125 -159.488281 292.9375 -174.4375 C 303.84375 -189.394531 314.75 -204.613281 325.65625 -220.09375 Z M 359.96875 -198.984375 "/></g></g></g></g></g></svg>